<?xml version="1.0" encoding="iso-8859-1"?>
<!-- Generator: Adobe Illustrator 19.0.0, SVG Export Plug-In . SVG Version: 6.00 Build 0)  -->
<svg version="1.1" id="Capa_1" xmlns="http://www.w3.org/2000/svg" xmlns:xlink="http://www.w3.org/1999/xlink" x="0px" y="0px"
	 viewBox="0 0 512 512" style="enable-background:new 0 0 512 512;" xml:space="preserve">
<path style="fill:#AAC4DA;" d="M458.667,309.333V352c0,5.891-4.776,10.667-10.667,10.667h-32V149.333h32
	c5.891,0,10.667,4.776,10.667,10.667V309.333z"/>
<g>
	<path style="fill:#95ADC0;" d="M416,149.333v245.333c0,5.891-4.776,10.667-10.667,10.667h-42.667L352,394.667V117.333
		l10.667-10.667h42.667c5.891,0,10.667,4.776,10.667,10.667V149.333z"/>
	<path style="fill:#95ADC0;" d="M160,288v106.667l-10.667,10.667h-42.667c-5.891,0-10.667-4.776-10.667-10.667V117.333
		c0-5.891,4.776-10.667,10.667-10.667h42.667L160,117.333V288z"/>
</g>
<g>
	<path style="fill:#AAC4DA;" d="M96,277.333v85.333H64c-5.891,0-10.667-4.776-10.667-10.667V160c0-5.891,4.776-10.667,10.667-10.667
		h32V277.333z"/>
	<path style="fill:#AAC4DA;" d="M160,224h192v64H160V224z"/>
</g>
<g>
	<path style="fill:#D9EEF7;" d="M490.667,202.667c5.891,0,10.667,4.776,10.667,10.667v85.333c0,5.891-4.776,10.667-10.667,10.667
		h-32V202.667H490.667z"/>
	<path style="fill:#D9EEF7;" d="M53.333,202.667v106.667h-32c-5.891,0-10.667-4.776-10.667-10.667v-85.333
		c0-5.891,4.776-10.667,10.667-10.667H53.333z"/>
</g>
<g>
	<path style="fill:#4C5B66;" d="M0,213.333v85.333C0,310.449,9.551,320,21.333,320H32v-21.333H21.333v-85.333H32V192H21.333
		C9.551,192,0,201.551,0,213.333z"/>
	<path style="fill:#4C5B66;" d="M490.667,192H480v21.333h10.667v85.333H480V320h10.667c11.782,0,21.333-9.551,21.333-21.333v-85.333
		C512,201.551,502.449,192,490.667,192z"/>
	<path style="fill:#4C5B66;" d="M448,138.667h-21.333v-21.333c0-11.782-9.551-21.333-21.333-21.333h-42.667
		c-2.829,0.001-5.541,1.125-7.541,3.125l-10.667,10.667c-2.001,2-3.125,4.713-3.125,7.541v96H170.667v-96
		c-0.001-2.829-1.125-5.541-3.125-7.541l-10.667-10.667c-2-2.001-4.713-3.125-7.541-3.125h-42.667
		c-11.782,0-21.333,9.551-21.333,21.333v21.333H64c-11.782,0-21.333,9.551-21.333,21.333v192c0,11.782,9.551,21.333,21.333,21.333
		h21.333v21.333c0,11.782,9.551,21.333,21.333,21.333h42.667c2.829-0.001,5.541-1.125,7.541-3.125l10.667-10.667
		c2.001-2,3.125-4.713,3.125-7.541v-96h170.667v96c0.001,2.829,1.125,5.541,3.125,7.541l10.667,10.667
		c2,2.001,4.713,3.125,7.541,3.125h42.667c11.782,0,21.333-9.551,21.333-21.333v-21.333H448c11.782,0,21.333-9.551,21.333-21.333
		V160C469.333,148.218,459.782,138.667,448,138.667z M149.333,390.251l-4.416,4.416h-38.251v-32c0-5.891-4.776-10.667-10.667-10.667
		H64V160h21.333v117.333h21.333v-160h38.251l4.416,4.416V390.251z M170.667,234.667h170.667v42.667H170.667V234.667z M448,352
		h-21.333V234.667h-21.333v160h-38.251l-4.416-4.416V121.749l4.416-4.416h38.251v32c0,5.891,4.776,10.667,10.667,10.667h32V352z"/>
	<path style="fill:#4C5B66;" d="M405.333,192h21.333v21.333h-21.333V192z"/>
	<path style="fill:#4C5B66;" d="M85.333,298.667h21.333V320H85.333V298.667z"/>
</g>
<g>
</g>
<g>
</g>
<g>
</g>
<g>
</g>
<g>
</g>
<g>
</g>
<g>
</g>
<g>
</g>
<g>
</g>
<g>
</g>
<g>
</g>
<g>
</g>
<g>
</g>
<g>
</g>
<g>
</g>
</svg>
